<svg xmlns="http://www.w3.org/2000/svg" viewBox="0 0 100 100">
  <defs>
    <linearGradient id="bgGrad" x1="0%" y1="0%" x2="100%" y2="100%">
      <stop offset="0%" style="stop-color:#7980d0;stop-opacity:1" />
      <stop offset="100%" style="stop-color:#6bbaf1;stop-opacity:1" />
    </linearGradient>
  </defs>
  <rect width="100" height="100" fill="url(#bgGrad)" rx="20"/>
  <g transform="translate(25, 25) scale(2.08)">
    <path d="M21.731 2.269a2.625 2.625 0 0 0-3.712 0l-1.157 1.157 3.712 3.712 1.157-1.157a2.625 2.625 0 0 0 0-3.712ZM19.513 8.199l-3.712-3.712-12.15 12.15a5.25 5.25 0 0 0-1.32 2.214l-.8 2.685a.75.75 0 0 0 .933.933l2.685-.8a5.25 5.25 0 0 0 2.214-1.32L19.513 8.2Z" fill="white" />
  </g>
</svg>